# xmcd
#
# Track frame offsets: 
#        150
#        27816
#        52090
#        77026
#        88516
#        110111
#        133431
#        156739
#        172194
#        191918
#        203253
#
# Disc length: 2857 seconds
#
# Revision: 1
# Processed by: cddbd v1.5.2PL0 Copyright (c) Steve Scherf et al.
# Submitted via: ExactAudioCopy v0.99pb4
#
DISCID=a10b270b
DTITLE=Various Artist - Enjoy the Experience  Homemade Records 1958-2004 (Dis
DTITLE=c2)
DYEAR=1974
DGENRE=Soul
TTITLE0=Ray Harlowe and Gyp Fox - Gettin' Keyed
TTITLE1=Cleo Mcnett - Snap
TTITLE2=Silhouettes - Lunar Invasion
TTITLE3=Arcesia - White Panther
TTITLE4=Boa - Never Come Back
TTITLE5=Stephen David Heitkotter - Cadillac Woman
TTITLE6=Dennis The Fox - Piledriver
TTITLE7=Bob Harrison - Why Don't You Do Right
TTITLE8=Circuit Rider - Old Time Feeling
TTITLE9=Russ Saul - Just To Say Goodbye
TTITLE10=Vinny Roma - Ah, Music
EXTD=
EXTT0=
EXTT1=
EXTT2=
EXTT3=
EXTT4=
EXTT5=
EXTT6=
EXTT7=
EXTT8=
EXTT9=
EXTT10=
PLAYORDER=
